<svg xmlns="http://www.w3.org/2000/svg" viewBox="0 0 312.67 64"><defs><style>.cls-1{font-size:36px;font-family:SegoeUI, Segoe UI;}.cls-1,.cls-3{fill:#ebedef;}.cls-2,.cls-4{fill:#45b866;}.cls-2{font-family:SegoeUI-BoldItalic, Segoe UI;font-weight:700;font-style:italic;}</style></defs><title>Logo_Full_White</title><g id="Layer_2" data-name="Layer 2"><g id="Full_name" data-name="Full name"><text class="cls-1" transform="translate(59.7 41.8)">Project <tspan class="cls-2" x="120.01" y="0">Planner</tspan></text><g id="Layer_5" data-name="Layer 5"><polygon class="cls-3" points="8 64 0 64 12 0 20 0 8 64"/><path class="cls-3" d="M31.37,0,29.9,7.86a12,12,0,0,1-4.43,23.59L24,39.31A20,20,0,1,0,31.37,0Z"/><polygon class="cls-4" points="18 42 14 42 20 10 24 10 18 42"/><path class="cls-4" d="M29.69,10,29,13.93a6,6,0,0,1-2.21,11.8L26,29.66A10,10,0,0,0,29.69,10Z"/></g></g></g></svg>