<svg xmlns="http://www.w3.org/2000/svg" viewBox="0 0 238.45 320"><defs><style>.cls-1{fill:#ebedef;}.cls-2{fill:#45b866;}</style></defs><title>Logo_White</title><g id="Layer_2" data-name="Layer 2"><g id="Logo_White" data-name="Logo White"><polygon class="cls-1" points="40 320 0 320 60 0 100 0 40 320"/><path class="cls-1" d="M156.86,0l-7.37,39.31a60,60,0,0,1-22.12,118L120,196.57A100,100,0,1,0,156.86,0Z"/><polygon class="cls-2" points="90 210 70 210 100 50 120 50 90 210"/><path class="cls-2" d="M148.43,50l-3.69,19.66a30,30,0,1,1-11.05,59L130,148.29A50,50,0,1,0,148.43,50Z"/></g></g></svg>